<svg xmlns="http://www.w3.org/2000/svg" version="1.1" xmlns:xlink="http://www.w3.org/1999/xlink" xmlns:svgjs="http://svgjs.com/svgjs" width="1438" height="559" preserveAspectRatio="none" viewBox="0 0 1438 559"><g mask="url(&quot;#SvgjsMask1006&quot;)" fill="none"><path d="M47.72 660.07C174.61 655.96 279.04 461.08 514.81 460.77 750.59 460.46 748.36 530.65 981.91 530.64 1215.45 530.64 1330.93 460.96 1449 460.77" stroke="rgba(51,121,194,0.58)" stroke-width="2"></path><path d="M508.79 629.88C600.55 629.87 590.8 612.66 875.31 610.15 1159.83 607.64 1412.77 340.67 1608.36 336.24" stroke="rgba(51,121,194,0.58)" stroke-width="2"></path><path d="M229.73 649.42C425.94 641.22 566.87 321.02 940.62 315.25 1314.37 309.48 1470.91 187.2 1651.51 186.68" stroke="rgba(51,121,194,0.58)" stroke-width="2"></path><path d="M700.09 568.28C810.57 505.6 751.23 134.31 956.49 129.65 1161.74 124.99 1335.65 279.02 1469.28 280.58" stroke="rgba(51,121,194,0.58)" stroke-width="2"></path><path d="M283.96 642.89C405.56 631.86 483.82 380.35 694.96 379.04 906.11 377.73 900.47 448.91 1105.97 448.91 1311.47 448.91 1412.75 379.29 1516.97 379.04" stroke="rgba(51,121,194,0.58)" stroke-width="2"></path></g><defs><mask id="SvgjsMask1006"><rect width="1438" height="559" fill="#ffffff"></rect></mask></defs></svg>